<svg xmlns="http://www.w3.org/2000/svg" width="67" height="50" viewBox="0 0 66 50"><path id="surface1" d="M37.125 50h-33C1.648 50 0 48.332 0 45.832s1.648-4.164 4.125-4.164h33c2.477 0 4.125 1.664 4.125 4.164S39.602 50 37.125 50m24.75-20.832H4.125C1.648 29.168 0 27.5 0 25s1.648-4.168 4.125-4.168h57.75C64.352 20.832 66 22.5 66 25s-1.648 4.168-4.125 4.168m0-20.836h-33c-2.477 0-4.125-1.664-4.125-4.164S26.398 0 28.875 0h33C64.352 0 66 1.668 66 4.168s-1.648 4.164-4.125 4.164m0 0" style="stroke:none;fill-rule:nonzero;fill:#000;fill-opacity:1"/></svg>